<svg id="Layer_1" data-name="Layer 1" xmlns="http://www.w3.org/2000/svg" viewBox="0 0 1366 768" width="120"><defs><style>.cls-1{fill:#fff;}.cls-2,.cls-3{fill:none;stroke:#fff;stroke-miterlimit:10;}.cls-2{stroke-linecap:round;stroke-width:5px;}.cls-3{stroke-width:6px;}</style></defs><title>logo blanco sin fondo</title>
<g>

  <path class="cls-1" d="M415.09,290.23a111.58,111.58,0,0,0,23.34-15c7.06-5.86,13.3-12.76,17.3-20.68a42,42,0,0,0,4-12.39,37.57,37.57,0,0,0-.34-12.81c-1.64-8.47-6-16.32-11.35-23.42-.68-.88-1.34-1.78-2.06-2.63s-1.42-1.76-2.12-2.52a40.84,40.84,0,0,0-4.53-4.36,36.49,36.49,0,0,0-10.69-6.14,40.56,40.56,0,0,0-12.14-2.39,54.22,54.22,0,0,0-12.62,1,76.51,76.51,0,0,0-24.12,9.43,96,96,0,0,0-20.53,16.31,89.94,89.94,0,0,0-8.32,10,78,78,0,0,0-6.66,11,55.44,55.44,0,0,0-6.12,23.86,41.85,41.85,0,0,0,6.36,22.69,52.85,52.85,0,0,0,7.62,9.56A73.66,73.66,0,0,0,361.8,300a99,99,0,0,0,11.08,6.78l3,1.59c1.08.56,2.16,1.12,3.23,1.71,2.15,1.16,4.28,2.36,6.38,3.63a123.9,123.9,0,0,1,23.86,18.07,79.45,79.45,0,0,1,10,11.94A62.33,62.33,0,0,1,426.68,358a55.79,55.79,0,0,1,3.06,16,60.16,60.16,0,0,1-1.53,16.06,85.45,85.45,0,0,1-12.63,28.09c-1.41,2.11-2.82,4.09-4.42,6.16s-3.25,4-5,5.87A99.88,99.88,0,0,1,395,440.55a114,114,0,0,1-25.79,15.29,139.41,139.41,0,0,1-28.32,8.72,127.1,127.1,0,0,1-29.62,2.55c-10.06-.43-20.45-2.44-30-7.21a56.13,56.13,0,0,1-13.05-9.09c-1-.92-1.92-1.84-2.81-2.83s-1.82-2-2.68-3.11a33.91,33.91,0,0,1-4.44-7.47,26.37,26.37,0,0,1-1.1-18,39.65,39.65,0,0,1,8.09-14.4,77.28,77.28,0,0,1,11-10.49,129.63,129.63,0,0,1,12-8.42,227.76,227.76,0,0,1,25.44-13.37c8.67-3.93,17.48-7.45,26.39-10.65s17.94-6,27.12-8.46q3.44-.91,6.93-1.71c2.35-.54,4.67-1,7-1.46q6.9-1.41,13.8-2.74c9.2-1.8,18.42-3.45,27.64-5.1,18.43-3.34,36.91-6.4,55.39-9.4l.17.88q-27.52,5.5-55,11.25-13.73,2.88-27.44,5.88-6.85,1.5-13.69,3.07c-4.57,1-9.08,2.15-13.56,3.48-9,2.63-17.8,5.68-26.52,9s-17.33,7-25.74,11a222.48,222.48,0,0,0-24.48,13.54,126.36,126.36,0,0,0-11.3,8.19,71.06,71.06,0,0,0-9.91,9.72,33.09,33.09,0,0,0-6.59,12,20,20,0,0,0-.69,6.72,19.76,19.76,0,0,0,1.66,6.54,26.58,26.58,0,0,0,3.57,5.81,33.85,33.85,0,0,0,2.28,2.58c.78.85,1.63,1.63,2.47,2.42A49.25,49.25,0,0,0,284.67,453c8.31,4.08,17.61,5.84,26.86,6.15a119,119,0,0,0,27.7-2.67,131.13,131.13,0,0,0,26.54-8.44,108.66,108.66,0,0,0,23.83-14.29,91.24,91.24,0,0,0,10.18-9.46,86.55,86.55,0,0,0,8.5-11,76.78,76.78,0,0,0,11.27-25.2A48.74,48.74,0,0,0,418.19,361c-3-8.71-8.53-16.4-15.06-22.93A115.29,115.29,0,0,0,381,321.19c-4-2.42-8.08-4.59-12.24-6.77a107.58,107.58,0,0,1-12-7.44,69.67,69.67,0,0,1-19.44-20.42,51,51,0,0,1-5.57-13.07,50.21,50.21,0,0,1-1.67-14.1,63.4,63.4,0,0,1,7.27-27.21A91.38,91.38,0,0,1,354,209.48a103.12,103.12,0,0,1,22.38-17.1,82.94,82.94,0,0,1,26.42-9.73,58.8,58.8,0,0,1,14.13-.77A46.36,46.36,0,0,1,430.78,185a42.05,42.05,0,0,1,12.09,7.38,46.19,46.19,0,0,1,5,5.06c1.51,1.82,2.94,3.68,4.31,5.6a74.05,74.05,0,0,1,7.16,12.17,51.92,51.92,0,0,1,4.22,13.49,41.51,41.51,0,0,1-.12,14.15,44.51,44.51,0,0,1-4.84,13.29C454,264.41,447.2,271.26,439.76,277A109.15,109.15,0,0,1,428,284.77a107.07,107.07,0,0,1-12.61,6.29Z"/>

  <path class="cls-1" d="M478.1,330.65A50.46,50.46,0,0,0,475,337a22.5,22.5,0,0,0-1.78,6.53,5.78,5.78,0,0,0,.38,2.84,2.58,2.58,0,0,0,1.77,1.38,6.25,6.25,0,0,0,1.35.21,12.18,12.18,0,0,0,1.52-.06,13,13,0,0,0,1.58-.23c.53-.11,1.06-.2,1.6-.35A56.3,56.3,0,0,0,494.3,343a48.34,48.34,0,0,0,11.4-7.27,36.06,36.06,0,0,0,4.65-4.8,31,31,0,0,0,3.51-5.57,26.28,26.28,0,0,0,1.95-6.19,19.58,19.58,0,0,0,0-6.38,18,18,0,0,0-2.12-6,10.88,10.88,0,0,0-4.31-4A20.43,20.43,0,0,0,496.95,301l-1.57.32c-.52.15-1,.28-1.55.45q-1.63.53-3.23,1.14a50.48,50.48,0,0,0-6.17,2.82,27.94,27.94,0,0,0-5.4,3.75,13.69,13.69,0,0,0-3.59,4.92,10.35,10.35,0,0,0-.63,2.83,11.72,11.72,0,0,0,.23,3A18.44,18.44,0,0,0,477.6,326a21.54,21.54,0,0,0,1.89,2.56,11.73,11.73,0,0,0,2.32,1.92,17.43,17.43,0,0,0,5.85,2.29,20.68,20.68,0,0,0,3.19.4c1,0,2.21,0,3.37,0,2.31-.07,4.61-.25,6.92-.46,4.61-.44,9.19-1.19,13.75-2.08a203.15,203.15,0,0,0,27.48-5.93,158.64,158.64,0,0,1-26.69,9.85,139.53,139.53,0,0,1-14.16,2.14c-2.38.22-4.77.4-7.17.48-1.2,0-2.38.08-3.69,0a24.68,24.68,0,0,1-3.81-.47,21.4,21.4,0,0,1-7.21-2.85,15.72,15.72,0,0,1-3.1-2.58,14.86,14.86,0,0,1-1.25-1.56c-.36-.51-.74-1-1.07-1.55a22.34,22.34,0,0,1-3.11-7.08,15.68,15.68,0,0,1-.31-4.07,14.33,14.33,0,0,1,.9-4,17.65,17.65,0,0,1,4.62-6.42,31.86,31.86,0,0,1,6.17-4.3,54.44,54.44,0,0,1,6.66-3q1.7-.64,3.42-1.21c.59-.19,1.23-.35,1.84-.53s1.26-.26,1.88-.39a24.36,24.36,0,0,1,15,2.27,14.84,14.84,0,0,1,5.9,5.52,22,22,0,0,1,2.59,7.28,23.58,23.58,0,0,1,0,7.68,30.23,30.23,0,0,1-2.28,7.24,35,35,0,0,1-4,6.35,40,40,0,0,1-5.16,5.33A52.32,52.32,0,0,1,496,346.62a65,65,0,0,1-6.75,2.71c-1.15.39-2.31.74-3.48,1.09a23.86,23.86,0,0,1-3.61.84,17.76,17.76,0,0,1-1.89.18,16.41,16.41,0,0,1-1.94,0,15.53,15.53,0,0,1-2-.19c-.34-.06-.69-.17-1-.25a4.93,4.93,0,0,1-1-.38,4.4,4.4,0,0,1-1-.55,4.23,4.23,0,0,1-.92-.76,4,4,0,0,1-.73-1l-.29-.52-.19-.55a7.84,7.84,0,0,1-.05-4.12,24,24,0,0,1,2.91-6.73A51,51,0,0,1,478.1,330.65Z"/>
  <path class="cls-1" d="M545.37,315.65c-.07,2.28-.26,4.3-.52,6.42s-.58,4.17-1,6.23a92.36,92.36,0,0,1-3.24,12.18l-4.78-2.25c1.54-2.32,3.12-4.4,4.8-6.49s3.43-4.1,5.29-6a70.52,70.52,0,0,1,5.9-5.5c1-.89,2.14-1.67,3.21-2.49s2.24-1.56,3.46-2.22a25,25,0,0,1,7.86-3.17,13.63,13.63,0,0,1,9,.93,9,9,0,0,1,3.61,3.34,10,10,0,0,1,1.4,4.58,17.22,17.22,0,0,1-2,8.44c-.33.61-.64,1.24-1,1.83l-.27.44-.13.22c0,.06-.11.18-.09.17a.12.12,0,0,1,0,0l-.09.21-.18.42a14.31,14.31,0,0,0-1,3.32c-.29,2.31.28,3.05,2.66,3.15a21.65,21.65,0,0,0,7-1.58,56.56,56.56,0,0,0,6.94-3.12,114.32,114.32,0,0,0,13-8.24c4.19-3,8.29-6.21,12.22-9.55l1.37,1.27a74,74,0,0,0-4.73,6.89,37.3,37.3,0,0,0-3.59,7.46,11.45,11.45,0,0,0-.65,3.92,3.54,3.54,0,0,0,1.7,3,7.29,7.29,0,0,0,3.78.8,9.53,9.53,0,0,0,3.87-1c4.78-2.86,9.62-5.89,14.43-8.83l14.44-8.87-14.19,9.27c-4.75,3.09-9.41,6.19-14.24,9.26a10.52,10.52,0,0,1-4.25,1.21,8.94,8.94,0,0,1-2.23-.12A5.76,5.76,0,0,1,612,341l-.55-.19c-.18-.08-.35-.18-.53-.28a4.32,4.32,0,0,1-1.72-1.68,5.62,5.62,0,0,1-.68-2.27,12.71,12.71,0,0,1,.59-4.42,38.73,38.73,0,0,1,3.52-7.88,75.59,75.59,0,0,1,4.66-7.21l1.37,1.27c-3.9,3.51-7.93,6.83-12.1,10a116.74,116.74,0,0,1-13.09,8.79,59.36,59.36,0,0,1-7.19,3.48,24.33,24.33,0,0,1-8.08,2,8.54,8.54,0,0,1-2.4-.29,5,5,0,0,1-2.41-1.47,5.15,5.15,0,0,1-1.19-2.57,8.08,8.08,0,0,1,0-2.43,17.57,17.57,0,0,1,1.11-4.17l.19-.48.1-.24.18-.4c.08-.16.09-.18.14-.26l.11-.2.22-.4c.31-.53.56-1.08.83-1.62a13.64,13.64,0,0,0,1.44-6.61,5.38,5.38,0,0,0-3-4.61,9.6,9.6,0,0,0-6.27-.37,20.73,20.73,0,0,0-6.45,2.85c-1.06.6-2,1.37-3.05,2.07s-2,1.51-2.88,2.37a65.77,65.77,0,0,0-5.36,5.29,89.49,89.49,0,0,0-9.16,12l-4.78-2.25a86.88,86.88,0,0,0,2.73-11.52c.33-1.95.58-3.91.77-5.87s.32-4,.32-5.78Z"/>
  <path class="cls-1" d="M542.37,315.65c0,2-.14,4.08-.33,6.11s-.46,4.06-.8,6.07a89.84,89.84,0,0,1-2.83,11.93l-.61-.29A91.61,91.61,0,0,1,547.3,327a57.91,57.91,0,0,1,11.93-10.27,24.55,24.55,0,0,1,7.38-3.19,12.48,12.48,0,0,1,8.26.63,8.05,8.05,0,0,1,3.3,2.91,9.19,9.19,0,0,1,1.37,4.16,16.61,16.61,0,0,1-1.73,8.13c-.31.61-.59,1.23-.94,1.81l-.43.75c-.08.24-.22.58-.32.85a14.52,14.52,0,0,0-.92,3.45,2.53,2.53,0,0,0,3,3.35,21.9,21.9,0,0,0,7-1.79,56.44,56.44,0,0,0,6.83-3.31,114.12,114.12,0,0,0,12.74-8.56c4.08-3.11,8.09-6.42,11.88-9.83l3,2.83a58.43,58.43,0,0,0-7.19,12.64,16.82,16.82,0,0,0-.88,3.2,4.74,4.74,0,0,0,.13,2.45c.23.47.5.7,1.28.95a6.74,6.74,0,0,0,2.71.13,7.34,7.34,0,0,0,2.64-.92l3.12-2,6.41-4.1,12.83-8.2,3.15,5.11L630.86,336l-6.54,3.88-3.36,2a12.4,12.4,0,0,1-4.54,1.44,11.58,11.58,0,0,1-4.82-.42,7.37,7.37,0,0,1-2.5-1.35,6.28,6.28,0,0,1-1.78-2.49,9.31,9.31,0,0,1-.31-5,21.36,21.36,0,0,1,1.23-4.09,47.82,47.82,0,0,1,3.7-7.08,77.37,77.37,0,0,1,4.47-6.45l3,2.83c-4,3.44-8.16,6.64-12.44,9.72a117.5,117.5,0,0,1-13.38,8.46,59.6,59.6,0,0,1-7.3,3.29,24.48,24.48,0,0,1-8.1,1.78,8.45,8.45,0,0,1-2.34-.34,4.61,4.61,0,0,1-3.34-3.89,7.67,7.67,0,0,1,0-2.33,17,17,0,0,1,1.19-4l.4-1c.14-.28.14-.25.19-.34l.12-.2.24-.4c.34-.53.6-1.08.9-1.63a14.38,14.38,0,0,0,1.72-6.92A6.31,6.31,0,0,0,574,316a10.64,10.64,0,0,0-7-.67,22.9,22.9,0,0,0-7,2.79,56.61,56.61,0,0,0-11.91,9.71,90.76,90.76,0,0,0-9.74,12.06l-.62-.29a89.32,89.32,0,0,0,3.14-11.77c.4-2,.71-4,1-6S542.31,317.68,542.37,315.65Z"/>
  <path class="cls-1" d="M636.64,288.65c0,1.88-3.84,5.61-8.57,6s-8.57-1.26-8.57-6c0-1.88,3.84-5.61,8.57-6S636.64,283.9,636.64,288.65Z"/>
  <path class="cls-2" d="M680.2,314.15l-18.57,17s-11.43,11-18.57,0,17.14-18,17.14-18,7.14-3,17.14,0,15.71-7,15.71-7-20,22-12.85,30c0,0,5.71,11,32.85,0,20.31-8.23,36.32-10.65,46.14-10,6.46.41,12.38,3,15.28,7,2.5,3.5,2.86,8-5.71,12"/>
  <path class="cls-1" d="M907.24,213.67c-3.72,2.89-7.49,6.06-11.15,9.22s-7.28,6.44-10.83,9.77c-7.1,6.65-14,13.56-20.53,20.74S851.9,268,846.06,275.81a219.82,219.82,0,0,0-16,24.32,148.62,148.62,0,0,0-11.86,26.51,96.61,96.61,0,0,0-5,28.52,73.28,73.28,0,0,0,5.37,28.45,81.59,81.59,0,0,0,6.82,13,100.26,100.26,0,0,0,9,11.59,100.53,100.53,0,0,1-9.51-11.27,82.43,82.43,0,0,1-7.38-12.82A75,75,0,0,1,811,355.18a99.41,99.41,0,0,1,4-29.52A152.53,152.53,0,0,1,826.08,298a224.85,224.85,0,0,1,15.42-25.49c5.65-8.17,11.76-16,18.16-23.58S872.8,234.07,879.77,227q5.23-5.29,10.67-10.39c3.65-3.4,7.28-6.7,11.19-10a4.5,4.5,0,1,1,5.79,6.89l-.12.1Z"/>
  <path class="cls-1" d="M764.89,270.68a37.49,37.49,0,0,1,.16-7.83,51.64,51.64,0,0,1,1.49-7.68,57.82,57.82,0,0,1,6.16-14.37,74,74,0,0,1,21.59-22.46,105.86,105.86,0,0,1,13.5-7.94,135.15,135.15,0,0,1,14.4-6.14,197.92,197.92,0,0,1,30.18-8.14c2.55-.47,5.15-1,7.72-1.32s5.15-.72,7.73-1q7.73-1,15.5-1.71c10.35-1,20.73-1.69,31.14-2a275.63,275.63,0,0,1,31.29.75A147.27,147.27,0,0,1,961.38,193a77.56,77.56,0,0,1,15.34,4.54,42.31,42.31,0,0,1,7.24,3.92,26.35,26.35,0,0,1,6.22,5.85,20.13,20.13,0,0,1,3.64,8,23.8,23.8,0,0,1,.08,8.68c-.11.7-.26,1.4-.42,2.08l-.51,2q-.52,2-1.17,3.87a67.31,67.31,0,0,1-3,7.5,78,78,0,0,1-8.32,13.78,116,116,0,0,1-22.77,22.22q-6.36,4.73-13.06,8.89T931,292.13c-18.53,9.77-37.84,17.63-57.34,24.76-9.75,3.57-19.57,6.93-29.42,10.18s-19.73,6.38-29.67,9.35a.3.3,0,0,1-.2-.57l28.93-11.38q14.46-5.67,28.82-11.55c9.55-4,19.07-8,28.43-12.3s18.62-8.81,27.59-13.79A224.05,224.05,0,0,0,954,270.43a111.75,111.75,0,0,0,21.83-20.8,72.27,72.27,0,0,0,8-12.62,61.8,61.8,0,0,0,2.91-6.86q.63-1.75,1.15-3.54l.5-1.79c.14-.57.27-1.15.38-1.72a18.6,18.6,0,0,0,.07-6.77,15,15,0,0,0-2.63-6.06c-2.65-3.68-6.85-6.37-11.33-8.38a73,73,0,0,0-14.35-4.46,142.88,142.88,0,0,0-15.12-2.31,271.62,271.62,0,0,0-30.8-1.18c-10.31.14-20.62.68-30.91,1.51q-7.72.63-15.42,1.48-3.85.43-7.69.92c-2.56.31-5.06.76-7.61,1.18A195.26,195.26,0,0,0,823,206.49a132.92,132.92,0,0,0-14.28,5.77,103.92,103.92,0,0,0-13.41,7.55,72.55,72.55,0,0,0-21.58,21.61,56.77,56.77,0,0,0-6.31,14,50.82,50.82,0,0,0-1.61,7.53,36.93,36.93,0,0,0-.3,7.67v0a.3.3,0,0,1-.6.05Z"/>
  <path class="cls-1" d="M786.61,332.65a37.71,37.71,0,0,0,7.89,1.72,75.26,75.26,0,0,0,8,.6,128.79,128.79,0,0,0,16.05-.59c11-1.05,22.54,0,33.11,4.49,10.39,4.28,19.77,10.63,28.26,17.83,1.07.91,2.09,1.81,3.09,2.72s1.95,1.63,3,2.45c2.07,1.65,4.2,3.25,6.34,4.84,4.29,3.17,8.68,6.21,13.13,9.15s9,5.77,13.62,8.41l3.46,2,3.51,1.91c1.18.63,2.33,1.3,3.52,1.89l3.56,1.8c2.36,1.25,4.79,2.32,7.2,3.44s4.87,2.13,7.31,3.17,4.95,1.92,7.43,2.86,5,1.8,7.49,2.53A107.34,107.34,0,0,0,993.9,408a98.6,98.6,0,0,0,15.92-1.52,65.83,65.83,0,0,0,7.81-1.86,43,43,0,0,0,7.5-3,48.11,48.11,0,0,1-14.79,7A92.94,92.94,0,0,1,994.15,412a104.53,104.53,0,0,1-16.61.37,101.18,101.18,0,0,1-16.52-2.4c-2.72-.61-5.44-1.36-8.05-2.21s-5.29-1.64-7.85-2.65-5.2-1.88-7.71-3-5.09-2.14-7.56-3.35-5-2.36-7.41-3.66l-3.66-1.91-3.6-2c-4.81-2.68-9.47-5.61-14.09-8.58s-9.08-6.2-13.47-9.52c-2.18-1.68-4.35-3.37-6.49-5.14-1.07-.9-2.12-1.73-3.25-2.78s-2-1.87-2.93-2.74a116.73,116.73,0,0,0-12.29-9.85,108.3,108.3,0,0,0-13.52-8,60.1,60.1,0,0,0-14.68-4.84,74.9,74.9,0,0,0-15.7-1.41,116.87,116.87,0,0,1-16.42-1.11,74.27,74.27,0,0,1-8.07-1.62c-1.32-.37-2.63-.76-3.92-1.23A22.64,22.64,0,0,1,786.61,332.65Z"/>
  <path class="cls-1" d="M937.3,302.91a45.92,45.92,0,0,0-3.67,8.2,26.09,26.09,0,0,0-1.51,8.57,11.9,11.9,0,0,0,.69,4,8.42,8.42,0,0,0,.84,1.72l.12.2.1.12a1.15,1.15,0,0,0,.21.24,2.77,2.77,0,0,0,.56.46,6.36,6.36,0,0,0,3.38.91,6.86,6.86,0,0,0,1.83-.21,7.53,7.53,0,0,0,1.79-.72,58.91,58.91,0,0,0,14.75-11A89.74,89.74,0,0,0,968,300.78l2.82,1.61a71.66,71.66,0,0,0-3.45,7.89,38.88,38.88,0,0,0-2.16,8.2,13.63,13.63,0,0,0,0,4,4.49,4.49,0,0,0,1.57,3,5.51,5.51,0,0,0,3.38,1,12.15,12.15,0,0,0,2-.1c.33,0,.66-.13,1-.19a6.09,6.09,0,0,0,1-.25,23.79,23.79,0,0,0,7.4-3.92,49,49,0,0,0,6.39-5.8c1-1.06,1.91-2.14,2.92-3.28s2.06-2.18,3.16-3.2a57.39,57.39,0,0,1,7-5.55,63.07,63.07,0,0,1,7.76-4.41,24.24,24.24,0,0,1,8.7-2.41,12.29,12.29,0,0,1,4.57.62,9.83,9.83,0,0,1,4,2.34,4,4,0,0,1,1.19,2.15,2.89,2.89,0,0,1-.08,1.31l-.28.59a2.83,2.83,0,0,1-.38.5c-1.07,1.14-2.13,2.08-3.22,3.1a124.82,124.82,0,0,1-14,10.86c-4.88,3.31-9.88,6.41-15,9.39,5-3.09,9.94-6.3,14.73-9.72a124.22,124.22,0,0,0,13.64-11.12c1-1,2.16-2.06,3.07-3.09s.51-2.35-.48-3.26a8.81,8.81,0,0,0-3.6-2,11.13,11.13,0,0,0-4.14-.47,23,23,0,0,0-8.16,2.46,61.55,61.55,0,0,0-7.47,4.48,55.66,55.66,0,0,0-6.69,5.54q-1.55,1.52-3,3.15c-.92,1.08-1.88,2.27-2.87,3.38a51.11,51.11,0,0,1-6.54,6.2,26.07,26.07,0,0,1-8,4.47,7.74,7.74,0,0,1-1.14.32c-.39.08-.77.19-1.17.25a14.67,14.67,0,0,1-2.41.18,8,8,0,0,1-4.94-1.41,6.43,6.43,0,0,1-1.81-2.08,8.84,8.84,0,0,1-.86-2.46,16.31,16.31,0,0,1-.14-4.81,41.68,41.68,0,0,1,2.11-8.9A74.54,74.54,0,0,1,968,300.9l2.82,1.61A93.19,93.19,0,0,1,959,318,62.76,62.76,0,0,1,943.55,330a11.79,11.79,0,0,1-2.61,1.1,11,11,0,0,1-2.88.41,10.58,10.58,0,0,1-5.72-1.47,7.06,7.06,0,0,1-1.31-1,4.79,4.79,0,0,1-.59-.64l-.27-.35-.19-.3a12.83,12.83,0,0,1-1.31-2.53,16.37,16.37,0,0,1-1.09-5.37,30.6,30.6,0,0,1,1.51-10.18A48.86,48.86,0,0,1,930.8,305a47.61,47.61,0,0,1,2.19-4.57Z"/>
  <path class="cls-1" d="M787.45,395.07a19,19,0,0,0-9.83-1.06,42.36,42.36,0,0,0-10.3,2.84,68.16,68.16,0,0,0-9.76,4.94c-3.15,1.93-6.22,4-9.16,6.27a81.35,81.35,0,0,0-15.72,15.39A51.28,51.28,0,0,0,727,432.7a50.75,50.75,0,0,0-2.08,5l-.78,2.58c-.27.86-.4,1.75-.61,2.62a39.06,39.06,0,0,0-.67,10.67,38.4,38.4,0,0,0,2.48,10.4,41.83,41.83,0,0,0,5.22,9.46,67.68,67.68,0,0,0,7.1,8.4,92.64,92.64,0,0,0,17.49,13.6c3.15,2,6.45,3.72,9.77,5.43s6.74,3.22,10.21,4.62a237.13,237.13,0,0,0,43.13,12.74A373.63,373.63,0,0,0,863,524.41a585.78,585.78,0,0,0,90.46,0A265.88,265.88,0,0,0,998,517.57a198.17,198.17,0,0,0,21.55-6.68,144.22,144.22,0,0,0,20.47-9.41c3.37-1.69,6.47-3.82,9.68-5.77.4-.25.8-.49,1.19-.75l1.14-.82,2.29-1.64,2.29-1.64a27.67,27.67,0,0,0,2.24-1.71c2.89-2.4,5.87-4.7,8.52-7.37l2-1.93,1-1c.33-.33.64-.69,1-1l3.82-4.14a111.16,111.16,0,0,0,22.27-38.85c.67-1.76,1.09-3.6,1.6-5.41s1-3.62,1.34-5.48.76-3.69,1.08-5.54l.73-5.6a28,28,0,0,0,.26-2.81l.18-2.82.18-2.82,0-2.82a80.61,80.61,0,0,0-.81-11.24,62.42,62.42,0,0,0-2.61-10.94A56.13,56.13,0,0,0,1088.38,360a27.66,27.66,0,0,0-1.91-2.07c-.67-.66-1.29-1.37-2-2-1.4-1.25-2.78-2.54-4.28-3.67a90.39,90.39,0,0,0-19.41-11.51,137.75,137.75,0,0,0-21.43-7.27,180.25,180.25,0,0,0-22.3-4.06,173.66,173.66,0,0,0-22.64-1.25,173.74,173.74,0,0,1,22.66,1.1,180.48,180.48,0,0,1,22.35,3.91A138.13,138.13,0,0,1,1061,340.3a90.93,90.93,0,0,1,19.6,11.45c1.53,1.13,2.92,2.42,4.35,3.68.71.63,1.35,1.34,2,2a28.14,28.14,0,0,1,2,2.08,56.91,56.91,0,0,1,11.43,19.6,63.33,63.33,0,0,1,2.72,11.08,81.59,81.59,0,0,1,.9,11.37l0,2.85-.16,2.85-.16,2.85c0,.95-.1,1.9-.24,2.84l-.7,5.66c-.31,1.87-.7,3.74-1,5.61s-.84,3.71-1.31,5.55-.92,3.69-1.58,5.48a112.56,112.56,0,0,1-22.28,39.5l-3.85,4.22c-.32.35-.63.71-1,1l-1,1-2.06,2c-2.68,2.72-5.68,5.07-8.59,7.52a28.35,28.35,0,0,1-2.26,1.74l-2.31,1.68-2.31,1.68-1.15.84c-.39.27-.8.51-1.2.77-3.24,2-6.37,4.18-9.76,5.91a146.17,146.17,0,0,1-20.66,9.67,200.28,200.28,0,0,1-21.73,6.9,268.22,268.22,0,0,1-44.95,7.24,588.58,588.58,0,0,1-90.9.59,376.89,376.89,0,0,1-45.17-5.93,240.67,240.67,0,0,1-43.88-12.64c-3.55-1.41-7-3-10.49-4.66s-6.83-3.5-10.1-5.52a96.59,96.59,0,0,1-18.34-14.07,71.77,71.77,0,0,1-7.59-8.86,46,46,0,0,1-5.78-10.32,42.65,42.65,0,0,1-2.84-11.58,43.39,43.39,0,0,1,.66-11.9c.22-1,.37-2,.66-2.91l.84-2.86a55.14,55.14,0,0,1,2.24-5.49,55.75,55.75,0,0,1,6.11-10.07,85.9,85.9,0,0,1,16.49-16.38q4.6-3.54,9.52-6.6a72.92,72.92,0,0,1,10.43-5.36,47.15,47.15,0,0,1,11.5-3.24,23.83,23.83,0,0,1,12.46,1.36Z"/>
  <path class="cls-1" d="M733.48,401.65A91,91,0,0,1,710,406.19a105.15,105.15,0,0,1-24.1-1.11q-1.5-.23-3-.52c-1-.18-2-.39-3-.62-2-.44-3.84-.9-5.78-1.28-3.84-.79-7.71-1.45-11.6-2q-11.68-1.62-23.47-2.33a340.61,340.61,0,0,0-93.67,7.6c-15.25,3.62-30.45,7.9-44.86,13.84A152.72,152.72,0,0,0,479.71,430c-6.53,4-12.7,8.68-17,14.46a19.68,19.68,0,0,0-3.93,9.38,14.1,14.1,0,0,0,.35,4.91,16.71,16.71,0,0,0,2,4.68,21.9,21.9,0,0,0,7.64,7.29,33.73,33.73,0,0,0,10.42,3.92,46,46,0,0,0,22.75-1.21,51.45,51.45,0,0,0,20.19-11.77,50,50,0,0,1-8.79,8.15,50.66,50.66,0,0,1-10.63,5.83,48.1,48.1,0,0,1-24.23,3,38.16,38.16,0,0,1-12-3.77,26.94,26.94,0,0,1-9.91-8.5,22.33,22.33,0,0,1-2.91-6.14,20,20,0,0,1-.79-6.9,25.82,25.82,0,0,1,4.57-12.59,47.41,47.41,0,0,1,8.54-9.48,85.7,85.7,0,0,1,10-7.39,144.45,144.45,0,0,1,21.67-11.25c7.47-3.14,15.08-5.85,22.76-8.24q5.77-1.79,11.59-3.37t11.73-2.84a299.15,299.15,0,0,1,47.75-6.67,305.62,305.62,0,0,1,48.13.79c8,.77,16,1.83,23.84,3.39,3.94.78,7.87,1.65,11.77,2.67,1.93.48,3.93,1.09,5.79,1.6.94.27,1.88.52,2.82.76s1.89.48,2.84.69a104.68,104.68,0,0,0,11.57,2q5.85.63,11.76.71a109,109,0,0,0,11.82-.54A84.1,84.1,0,0,0,733.48,401.65Z"/>
  <path class="cls-1" d="M935.15,301.65a48.18,48.18,0,0,0-3.68,8.77,28.11,28.11,0,0,0-1.39,9.33,13.85,13.85,0,0,0,.92,4.57,7.06,7.06,0,0,0,2.67,3.6A8.14,8.14,0,0,0,938,329a8.71,8.71,0,0,0,4.36-1.23,60.34,60.34,0,0,0,14.85-11.58,90.75,90.75,0,0,0,11.44-15,.88.88,0,0,1,1.54.84v0a72.35,72.35,0,0,0-3.3,8,39.17,39.17,0,0,0-2,8.34,13.82,13.82,0,0,0,.11,4.06,4.64,4.64,0,0,0,1.72,3,5.64,5.64,0,0,0,3.47.9,12.19,12.19,0,0,0,2-.15c.33-.05.66-.15,1-.22a6.07,6.07,0,0,0,1-.28,23.7,23.7,0,0,0,7.25-4.07,48.74,48.74,0,0,0,6.21-5.9c1-1.08,1.84-2.16,2.84-3.35s2-2.25,3.12-3.31a58.18,58.18,0,0,1,7-5.79,64.07,64.07,0,0,1,7.78-4.66,24.23,24.23,0,0,1,4.39-1.78q1.14-.34,2.29-.58a17.72,17.72,0,0,1,2.41-.36,13.63,13.63,0,0,1,5.08.58,11.17,11.17,0,0,1,4.62,2.62,5.5,5.5,0,0,1,1.65,2.93,4.44,4.44,0,0,1-.1,2c-.12.31-.25.61-.4.91a4.32,4.32,0,0,1-.52.73,9.94,9.94,0,0,1-.9,1l-.79.79-1.61,1.57a126.83,126.83,0,0,1-13.91,11.35c-4.85,3.46-9.83,6.7-14.88,9.81a2.5,2.5,0,1,1-2.62-4.26l0,0c5-2.95,10-6,14.82-9.29a122.49,122.49,0,0,0,13.69-10.64l1.59-1.48.79-.75a5.91,5.91,0,0,0,.62-.63c.25-.27.2-.26.2-.39a1.56,1.56,0,0,0-.51-.83,7.38,7.38,0,0,0-3-1.72,9.83,9.83,0,0,0-3.62-.51,14.15,14.15,0,0,0-2,.25c-.67.12-1.34.27-2,.45a20.52,20.52,0,0,0-3.82,1.45,60.59,60.59,0,0,0-7.46,4.23,54.91,54.91,0,0,0-6.72,5.3q-1.56,1.46-3,3c-.92,1-1.93,2.23-3,3.32a51.56,51.56,0,0,1-6.72,6.1,26.29,26.29,0,0,1-8.18,4.32,7.79,7.79,0,0,1-1.15.3c-.39.08-.78.17-1.17.23a14.68,14.68,0,0,1-2.41.13,8,8,0,0,1-4.86-1.48,6.26,6.26,0,0,1-1.72-2.06,8.58,8.58,0,0,1-.79-2.42,16,16,0,0,1,0-4.73,41.12,41.12,0,0,1,2.28-8.75,74.05,74.05,0,0,1,3.59-8.2l1.52.87a92.27,92.27,0,0,1-12,15,61.42,61.42,0,0,1-15.39,11.44,9.56,9.56,0,0,1-4.75,1.21,8.84,8.84,0,0,1-4.73-1.29,5.47,5.47,0,0,1-1.75-1.78,10.9,10.9,0,0,1-1.08-2.19,14.34,14.34,0,0,1-.85-4.75,28.43,28.43,0,0,1,1.62-9.41A48.28,48.28,0,0,1,935.15,301.65Z"/>
  <path class="cls-1" d="M788.45,392.78a21.37,21.37,0,0,0-11.14-1.17,44.71,44.71,0,0,0-10.87,3.07,86.31,86.31,0,0,0-19.37,11.64,83.41,83.41,0,0,0-16,15.91,53.25,53.25,0,0,0-5.85,9.64,52.66,52.66,0,0,0-2.13,5.22l-.8,2.7c-.28.9-.41,1.83-.62,2.75a40.89,40.89,0,0,0-.62,11.19,40.15,40.15,0,0,0,2.67,10.88,43.53,43.53,0,0,0,5.48,9.78,69.29,69.29,0,0,0,7.33,8.55,94.13,94.13,0,0,0,17.87,13.7c3.2,2,6.55,3.71,9.91,5.41s6.82,3.2,10.33,4.59A238.24,238.24,0,0,0,818,519.14,374.42,374.42,0,0,0,862.92,525a586.11,586.11,0,0,0,90.51-.59A265.7,265.7,0,0,0,998,517.26a197.74,197.74,0,0,0,21.46-6.81,143.67,143.67,0,0,0,20.34-9.52c3.34-1.7,6.41-3.85,9.6-5.81.39-.25.79-.49,1.18-.76l1.13-.83,2.27-1.65,2.27-1.65a27.38,27.38,0,0,0,2.22-1.71c2.85-2.41,5.8-4.71,8.42-7.38l2-1.93,1-1c.33-.33.63-.69.95-1l3.76-4.13a110.06,110.06,0,0,0,21.78-38.62c.65-1.75,1.06-3.56,1.54-5.36s1-3.58,1.28-5.42.73-3.65,1-5.48l.68-5.53a27.37,27.37,0,0,0,.24-2.77l.16-2.78.16-2.78v-2.77a79.08,79.08,0,0,0-.87-11,60.82,60.82,0,0,0-2.62-10.65A54.41,54.41,0,0,0,1087,361.17a26.36,26.36,0,0,0-1.87-2c-.65-.64-1.26-1.32-1.95-1.92-1.37-1.21-2.71-2.45-4.19-3.54A88.47,88.47,0,0,0,1060,342.59a135.67,135.67,0,0,0-21.14-7,178,178,0,0,0-22-3.86,171.22,171.22,0,0,0-22.33-1.08,2.5,2.5,0,0,1-.1-5h0a176.13,176.13,0,0,1,23,1.27A182.76,182.76,0,0,1,1040,331a140.25,140.25,0,0,1,21.83,7.41,92.89,92.89,0,0,1,19.95,11.83c1.55,1.17,3,2.51,4.45,3.81.73.65,1.38,1.39,2.08,2.07s1.37,1.4,2,2.16a58.63,58.63,0,0,1,11.64,20.26,64.93,64.93,0,0,1,2.71,11.37,83.09,83.09,0,0,1,.84,11.6l0,2.9-.18,2.88-.19,2.88c-.05,1-.12,1.92-.27,2.87l-.75,5.72c-.32,1.9-.74,3.78-1.1,5.67s-.87,3.75-1.37,5.6-1,3.73-1.63,5.53a113.66,113.66,0,0,1-22.77,39.73l-3.9,4.23c-.33.35-.64.71-1,1l-1,1-2.09,2c-2.71,2.72-5.75,5.06-8.69,7.51a28.61,28.61,0,0,1-2.28,1.74l-2.33,1.67-2.33,1.67-1.17.84c-.4.27-.81.51-1.21.77-3.27,2-6.43,4.16-9.85,5.87a146.71,146.71,0,0,1-20.8,9.56A200.66,200.66,0,0,1,998.65,520a268.35,268.35,0,0,1-45,6.94,588.28,588.28,0,0,1-90.85,0,376.14,376.14,0,0,1-45-6.23,239.62,239.62,0,0,1-43.59-12.88c-3.52-1.43-7-3-10.37-4.7s-6.74-3.51-10-5.53a95.14,95.14,0,0,1-18-14,70.19,70.19,0,0,1-7.36-8.71,44.35,44.35,0,0,1-5.51-10,40.9,40.9,0,0,1-2.65-11.1A41.55,41.55,0,0,1,721,442.4c.22-.93.36-1.87.65-2.78l.83-2.73a53.2,53.2,0,0,1,2.19-5.26,53.76,53.76,0,0,1,6-9.68,83.8,83.8,0,0,1,16.2-15.87,86.54,86.54,0,0,1,19.5-11.53,44.83,44.83,0,0,1,10.92-3A21.41,21.41,0,0,1,788.45,392.78Z"/>
  <path class="cls-1" d="M937.3,302.91a45.92,45.92,0,0,0-3.67,8.2,26.09,26.09,0,0,0-1.51,8.57,11.9,11.9,0,0,0,.69,4,8.42,8.42,0,0,0,.84,1.72l.12.2.1.12a1.15,1.15,0,0,0,.21.24,2.77,2.77,0,0,0,.56.46,6.36,6.36,0,0,0,3.38.91,6.86,6.86,0,0,0,1.83-.21,7.53,7.53,0,0,0,1.79-.72,58.91,58.91,0,0,0,14.75-11A89.74,89.74,0,0,0,968,300.78l2.82,1.61a71.66,71.66,0,0,0-3.45,7.89,38.88,38.88,0,0,0-2.16,8.2,13.63,13.63,0,0,0,0,4,4.49,4.49,0,0,0,1.57,3,5.51,5.51,0,0,0,3.38,1,12.15,12.15,0,0,0,2-.1c.33,0,.66-.13,1-.19a6.09,6.09,0,0,0,1-.25,23.79,23.79,0,0,0,7.4-3.92,49,49,0,0,0,6.39-5.8c1-1.06,1.91-2.14,2.92-3.28s2.06-2.18,3.16-3.2a57.39,57.39,0,0,1,7-5.55,63.07,63.07,0,0,1,7.76-4.41,24.24,24.24,0,0,1,8.7-2.41,12.29,12.29,0,0,1,4.57.62,9.83,9.83,0,0,1,4,2.34,4,4,0,0,1,1.19,2.15,2.89,2.89,0,0,1-.08,1.31l-.28.59a2.83,2.83,0,0,1-.38.5c-1.07,1.14-2.13,2.08-3.22,3.1a124.82,124.82,0,0,1-14,10.86c-4.88,3.31-9.88,6.41-15,9.39,5-3.09,9.94-6.3,14.73-9.72a124.22,124.22,0,0,0,13.64-11.12c1-1,2.16-2.06,3.07-3.09s.51-2.35-.48-3.26a8.81,8.81,0,0,0-3.6-2,11.13,11.13,0,0,0-4.14-.47,23,23,0,0,0-8.16,2.46,61.55,61.55,0,0,0-7.47,4.48,55.66,55.66,0,0,0-6.69,5.54q-1.55,1.52-3,3.15c-.92,1.08-1.88,2.27-2.87,3.38a51.11,51.11,0,0,1-6.54,6.2,26.07,26.07,0,0,1-8,4.47,7.74,7.74,0,0,1-1.14.32c-.39.08-.77.19-1.17.25a14.67,14.67,0,0,1-2.41.18,8,8,0,0,1-4.94-1.41,6.43,6.43,0,0,1-1.81-2.08,8.84,8.84,0,0,1-.86-2.46,16.31,16.31,0,0,1-.14-4.81,41.68,41.68,0,0,1,2.11-8.9A74.54,74.54,0,0,1,968,300.9l2.82,1.61A93.19,93.19,0,0,1,959,318,62.76,62.76,0,0,1,943.55,330a11.79,11.79,0,0,1-2.61,1.1,11,11,0,0,1-2.88.41,10.58,10.58,0,0,1-5.72-1.47,7.06,7.06,0,0,1-1.31-1,4.79,4.79,0,0,1-.59-.64l-.27-.35-.19-.3a12.83,12.83,0,0,1-1.31-2.53,16.37,16.37,0,0,1-1.09-5.37,30.6,30.6,0,0,1,1.51-10.18A48.86,48.86,0,0,1,930.8,305a47.61,47.61,0,0,1,2.19-4.57Z"/>
</g>
</svg>
